<?xml version="1.0" encoding="utf-8"?>
<!-- Generator: Adobe Illustrator 16.0.0, SVG Export Plug-In . SVG Version: 6.00 Build 0)  -->
<!DOCTYPE svg PUBLIC "-//W3C//DTD SVG 1.1//EN" "http://www.w3.org/Graphics/SVG/1.1/DTD/svg11.dtd">
<svg version="1.1" id="Layer_1" xmlns="http://www.w3.org/2000/svg" xmlns:xlink="http://www.w3.org/1999/xlink" x="0px" y="0px" viewBox="0 0 142.099 92.611" enable-background="new 0 0 142.099 92.611"
	 xml:space="preserve">
<polyline fill-rule="evenodd" clip-rule="evenodd" fill="#666666" points="125.598,32.474 129.973,32.463 136.998,46.64 
	137.508,47.318 137.508,32.507 142.099,32.507 142.099,58.653 137.797,58.649 137.511,58.1 130.699,44.5 130.194,43.811 
	130.194,58.611 125.598,58.611 125.598,32.474 "/>
<path fill-rule="evenodd" clip-rule="evenodd" fill="#666666" d="M89.942,58.625c-1.602,0-3.077,0-4.589,0c0-8.7,0-17.342,0-26.125
	c0.228,0,0.47-0.027,0.712-0.027c3.526,0,7.053-0.008,10.578,0.002c3.189,0.01,5.124,2.037,5.111,5.098
	c-0.008,1.856-0.04,3.712,0.008,5.567c0.056,2.187-1.3,3.971-3.262,4.515c-0.215,0.06-0.424,0.142-0.707,0.238
	c1.332,3.578,2.654,7.131,4.005,10.762c-1.622,0-3.149,0.012-4.675-0.018c-0.152-0.003-0.375-0.232-0.439-0.404
	c-0.876-2.32-1.73-4.649-2.591-6.976c-0.355-0.96-0.645-1.95-1.089-2.872c-0.219-0.453-0.224-0.458-0.561-0.455
	c-0.829,0.009-1.616,0.004-2.502,0.004C89.942,51.503,89.942,55.038,89.942,58.625z M89.968,37.214c0,2.039,0,3.993,0,5.981
	c2.042,0,4.034,0.013,6.025-0.007c0.636-0.006,1.135-0.582,1.152-1.314c0.026-1.112,0.026-2.226,0-3.338
	c-0.017-0.733-0.516-1.308-1.152-1.314C94.001,37.202,92.009,37.214,89.968,37.214z"/>
<path fill-rule="evenodd" clip-rule="evenodd" fill="#666666" d="M121.944,45.64c0,2.736,0.052,5.475-0.02,8.209
	c-0.044,1.668-0.611,3.203-2.153,4.067c-0.729,0.408-1.626,0.677-2.458,0.708c-2.432,0.092-4.87,0.071-7.304,0.022
	c-2.603-0.052-4.413-1.926-4.472-4.281c-0.139-5.554-0.164-11.113-0.145-16.67c0.007-1.82,0.587-3.54,2.298-4.495
	c0.761-0.424,1.711-0.658,2.588-0.695c2.246-0.095,4.499-0.077,6.747-0.021c3.07,0.077,4.775,1.837,4.896,4.945
	C122.028,40.163,121.944,42.903,121.944,45.64z M117.343,45.638c0-2.273,0.005-4.546-0.002-6.819
	c-0.004-1.108-0.479-1.601-1.522-1.604c-1.461-0.004-2.922-0.007-4.384,0.001c-0.792,0.004-1.324,0.51-1.325,1.269
	c-0.005,4.731-0.005,9.462,0,14.194c0,0.643,0.417,1.189,1.053,1.226c1.52,0.089,3.047,0.183,4.565,0.123
	c1.201-0.047,1.614-0.632,1.614-1.851C117.343,49.998,117.343,47.818,117.343,45.638z"/>
<path fill-rule="evenodd" clip-rule="evenodd" fill="#666666" d="M78.638,75.867c0,2.714,0.018,5.428-0.007,8.142
	c-0.016,1.832-0.699,3.365-2.328,4.307c-0.548,0.317-1.241,0.521-1.873,0.535c-2.574,0.059-5.15-0.009-7.724,0.035
	c-2.231,0.038-3.807-1.412-4.338-3.384c-0.206-0.764-0.289-1.581-0.293-2.375c-0.026-4.825-0.048-9.65,0.007-14.475
	c0.018-1.57,0.171-3.153,1.376-4.406c0.824-0.857,1.789-1.386,2.96-1.402c2.644-0.038,5.292-0.083,7.933,0.01
	c2.142,0.076,3.624,1.445,4.126,3.652c0.166,0.729,0.148,1.507,0.153,2.263C78.648,71.134,78.638,73.5,78.638,75.867z M66.801,75.9
	c0,2.295-0.001,4.59,0,6.885c0.001,0.97,0.501,1.48,1.479,1.487c1.414,0.009,2.828,0.007,4.242,0.001
	c0.916-0.004,1.51-0.575,1.511-1.472c0.005-4.59,0.005-9.18,0-13.77c-0.001-0.975-0.603-1.587-1.581-1.597
	c-1.367-0.014-2.736-0.042-4.103,0.009c-1.059,0.04-1.575,0.528-1.561,1.572C66.824,71.31,66.801,73.605,66.801,75.9z"/>
<path fill-rule="evenodd" clip-rule="evenodd" fill="#666666" d="M98.829,75.837c0,2.689,0.034,5.38-0.014,8.069
	c-0.026,1.471-0.448,2.823-1.594,3.87c-0.763,0.696-1.639,1.087-2.661,1.094c-2.551,0.017-5.102-0.027-7.652,0.015
	c-2.267,0.038-3.76-1.352-4.344-3.291c-0.208-0.688-0.294-1.436-0.298-2.157c-0.024-5.125-0.024-10.249-0.005-15.374
	c0.005-1.298,0.344-2.516,1.14-3.582c0.796-1.066,1.887-1.61,3.174-1.635c2.643-0.051,5.289-0.08,7.929,0.004
	c2.254,0.071,3.948,1.629,4.146,3.908c0.218,2.502,0.133,5.032,0.177,7.549C98.836,74.816,98.829,75.327,98.829,75.837z
	 M94.228,75.879c0-2.227,0.006-4.453-0.002-6.68c-0.004-1.077-0.57-1.748-1.511-1.763c-1.415-0.022-2.83-0.024-4.244,0.001
	c-0.878,0.016-1.315,0.377-1.472,1.213c-0.1,0.535-0.137,1.089-0.139,1.635c-0.011,4.013-0.024,8.025,0.003,12.037
	c0.01,1.462,0.589,2.027,1.942,1.963c1.736-0.011,1.739,0.014,3.546,0.007c1.258,0.007,1.896-0.67,1.883-1.874
	C94.212,80.239,94.228,78.059,94.228,75.879z"/>
<polygon fill-rule="evenodd" clip-rule="evenodd" fill="#666666" points="33.65,12.928 33.65,2.314 38.345,2.314 38.345,28.258 
	33.675,28.258 33.675,17.631 26.449,17.631 26.449,28.245 21.869,28.245 21.869,2.301 26.4,2.301 26.4,12.928 33.65,12.928 "/>
<polygon fill-rule="evenodd" clip-rule="evenodd" fill="#666666" points="42.06,62.863 46.61,62.863 46.61,68.165 46.61,73.501 
	53.846,73.501 53.846,68.232 53.846,62.887 58.397,62.887 58.397,88.832 53.865,88.832 53.865,78.204 46.639,78.204 46.639,88.818 
	42.06,88.818 42.06,62.863 "/>
<path fill-rule="evenodd" clip-rule="evenodd" fill="#666666" d="M20.198,68.177c-1.586,0.404-3.081,0.784-4.574,1.164
	c-0.288-1.608-0.645-1.91-2.261-1.91c-1.137,0-2.273-0.007-3.41,0.002C8.878,67.441,8.319,68.02,8.317,69.1
	c-0.001,0.858-0.002,1.717,0,2.575c0.002,0.83,0.491,1.43,1.311,1.594c2.115,0.422,4.244,0.788,6.345,1.271
	c2.794,0.642,4.076,2.049,4.172,5.042c0.047,1.483,0.029,2.969,0.003,4.454c-0.046,2.707-1.722,4.872-4.798,4.844
	c-2.412-0.021-4.825,0.003-7.237-0.006c-2.665-0.01-4.212-2.055-4.396-4.343c-0.023-0.292-0.038-0.585-0.058-0.893
	c0.15-0.059,0.312-0.145,0.484-0.187c1.36-0.333,2.723-0.658,4.086-0.985c0.304,1.567,0.608,1.81,2.243,1.81
	c1.137,0,2.273,0.004,3.41-0.001c0.889-0.004,1.519-0.417,1.618-1.277c0.104-0.912,0.098-1.857-0.018-2.768
	c-0.118-0.933-0.825-1.294-2.079-1.534c-2.146-0.41-4.299-0.823-6.402-1.405c-1.812-0.501-3.264-2.218-3.291-4.338
	c-0.02-1.5-0.164-3-0.112-4.497c0.051-1.506,0.232-3.001,1.367-4.202c0.856-0.905,1.863-1.403,3.083-1.416
	c2.482-0.026,4.964-0.008,7.446-0.007c2.278,0,4.071,1.469,4.51,3.719C20.11,67.083,20.136,67.632,20.198,68.177z"/>
<polygon fill-rule="evenodd" clip-rule="evenodd" fill="#666666" points="45.948,23.708 57.85,23.708 57.85,28.245 41.364,28.245 
	41.364,2.301 57.853,2.301 57.853,6.827 45.959,6.827 45.959,12.963 53.105,12.963 53.105,17.571 45.948,17.571 45.948,23.708 "/>
<path fill-rule="evenodd" clip-rule="evenodd" fill="#666666" d="M58.511,58.657l-4.777-0.007l-0.15-0.587l-0.861-3.722h-2.507
	h-2.461l-0.88,3.816l-0.43,0.477l-4.479,0.022l6.06-26.156h4.393L58.511,58.657L58.511,58.657z M50.314,43.804l-0.145-0.005
	l-1.32,5.753h2.781L50.314,43.804L50.314,43.804z"/>
<path fill-rule="evenodd" clip-rule="evenodd" fill="#666666" d="M35.113,82.47c1.368,0.331,2.695,0.661,4.028,0.966
	c0.377,0.086,0.523,0.254,0.514,0.655c-0.054,2.526-1.847,4.872-4.659,4.798c-3.871,0-4.92-0.013-7.38-0.014
	c-2.678-0.001-4.335-2.092-4.384-4.342c-0.113-5.258-0.142-10.519-0.142-15.778c0-1.362,0.1-2.742,0.94-3.945
	c0.897-1.283,2.086-1.969,3.649-1.976c2.297-0.01,4.115-0.005,6.892-0.021c3.325,0,5.205,2.448,5.054,5.378
	c-1.491,0.381-3,0.767-4.51,1.153c-0.244-1.425-0.824-1.912-2.275-1.913c-1.114,0-2.228-0.004-3.342,0.001
	c-1.125,0.006-1.688,0.572-1.688,1.688c0,4.549,0,9.097,0,13.646c0,1.006,0.5,1.502,1.53,1.508c1.996,0.021,1.996,0.021,3.62,0.009
	C34.581,84.335,34.853,83.715,35.113,82.47z"/>
<polygon fill-rule="evenodd" clip-rule="evenodd" fill="#666666" points="8.301,47.91 8.301,58.624 3.578,58.624 3.578,57.895 
	3.564,33.324 3.564,32.459 19.383,32.474 20.11,32.474 20.11,37.193 8.37,37.193 8.37,43.188 15.524,43.188 15.524,47.91 
	8.301,47.91 "/>
<polyline fill-rule="evenodd" clip-rule="evenodd" fill="#666666" points="23.059,32.474 27.812,32.463 27.812,33.615 
	27.812,54.054 39.59,54.054 39.59,58.607 23.071,58.607 23.074,57.951 23.059,32.474 "/>
<polygon fill-rule="evenodd" clip-rule="evenodd" fill="#666666" points="73.315,32.501 73.315,37.191 67.393,37.191 67.393,58.609 
	62.77,58.609 62.77,37.237 56.964,37.237 56.964,32.501 73.315,32.501 "/>
<polyline fill-rule="evenodd" clip-rule="evenodd" fill="#666666" points="8.379,6.857 2.375,6.857 2.375,2.289 2.375,2.289 
	18.863,2.289 18.863,6.826 12.927,6.826 12.927,28.264 8.312,28.264 8.312,6.857 "/>
<polygon fill-rule="evenodd" clip-rule="evenodd" fill="#666666" points="102.469,88.829 102.469,62.874 107.042,62.874 
	107.042,84.256 118.967,84.256 118.967,88.829 102.469,88.829 "/>
<polygon fill-rule="evenodd" clip-rule="evenodd" fill="#666666" points="76.961,58.617 76.961,57.911 76.952,32.501 76.952,32.463 
	81.515,32.501 81.515,58.617 76.961,58.617 "/>
<g>
	<polyline fill-rule="evenodd" clip-rule="evenodd" fill="#45A2CE" points="72.757,6.484 67.792,22.667 65.555,30.117 
		65.398,30.655 62.115,30.657 62.726,28.561 66.377,16.622 71.426,-0.095 72.041,-0.107 74.727,-0.098 	"/>
	<polygon fill-rule="evenodd" clip-rule="evenodd" fill="#45A2CE" points="76.778,30.624 73.472,30.624 82.754,-0.066 
		86.093,-0.066 76.778,30.624 	"/>
</g>
</svg>
