<?xml version="1.0" encoding="utf-8"?>
<!-- Generator: Adobe Illustrator 16.0.0, SVG Export Plug-In . SVG Version: 6.00 Build 0)  -->
<!DOCTYPE svg PUBLIC "-//W3C//DTD SVG 1.1//EN" "http://www.w3.org/Graphics/SVG/1.1/DTD/svg11.dtd">
<svg version="1.1" id="Layer_1" xmlns="http://www.w3.org/2000/svg" xmlns:xlink="http://www.w3.org/1999/xlink" x="0px" y="0px"
	 width="239px" height="23.5px" viewBox="0 0 239 23.5" enable-background="new 0 0 239 23.5" xml:space="preserve">
<polygon fill-rule="evenodd" clip-rule="evenodd" fill="#666666" points="21.791,10.659 21.791,3.788 24.831,3.788 24.831,20.586 
	21.807,20.586 21.807,13.705 17.129,13.705 17.129,20.577 14.163,20.577 14.163,3.778 17.097,3.778 17.097,10.659 21.791,10.659 "/>
<polygon fill-rule="evenodd" clip-rule="evenodd" fill="#666666" points="29.754,17.639 37.46,17.639 37.46,20.577 26.786,20.577 
	26.786,3.778 37.461,3.778 37.461,6.709 29.761,6.709 29.761,10.682 34.388,10.682 34.388,13.666 29.754,13.666 29.754,17.639 "/>
<polyline fill-rule="evenodd" clip-rule="evenodd" fill="#666666" points="5.429,6.729 1.541,6.729 1.541,3.771 1.541,3.771 
	12.217,3.771 12.217,6.708 8.373,6.708 8.373,20.589 5.385,20.589 5.385,6.729 "/>
<g>
	<polyline fill-rule="evenodd" clip-rule="evenodd" fill="#45A2CE" points="49.702,6.487 46.487,16.965 45.038,21.789 
		44.937,22.138 42.811,22.139 43.207,20.781 45.571,13.051 48.839,2.228 49.238,2.22 50.977,2.225 	"/>
	<polygon fill-rule="evenodd" clip-rule="evenodd" fill="#45A2CE" points="52.305,22.117 50.165,22.117 56.174,2.246 58.336,2.246 
		52.305,22.117 	"/>
</g>
<polyline fill-rule="evenodd" clip-rule="evenodd" fill="#666666" points="143.233,3.632 146.065,3.625 150.614,12.804 
	150.944,13.243 150.944,3.653 153.917,3.653 153.917,20.582 151.132,20.579 150.946,20.224 146.536,11.419 146.209,10.972 
	146.209,20.555 143.233,20.555 143.233,3.632 "/>
<path fill-rule="evenodd" clip-rule="evenodd" fill="#666666" d="M120.147,20.564c-1.037,0-1.993,0-2.973,0
	c0-5.634,0-11.229,0-16.915c0.147,0,0.305-0.018,0.462-0.018c2.282,0,4.566-0.005,6.849,0.001c2.065,0.007,3.317,1.319,3.31,3.301
	c-0.006,1.201-0.026,2.403,0.005,3.604c0.036,1.416-0.842,2.571-2.111,2.923c-0.14,0.039-0.275,0.092-0.458,0.154
	c0.862,2.316,1.719,4.616,2.593,6.968c-1.05,0-2.039,0.007-3.026-0.012c-0.099-0.002-0.243-0.15-0.284-0.262
	c-0.568-1.502-1.121-3.011-1.678-4.517c-0.23-0.621-0.418-1.263-0.705-1.859c-0.142-0.294-0.146-0.297-0.363-0.294
	c-0.537,0.006-1.047,0.002-1.619,0.002C120.147,15.953,120.147,18.241,120.147,20.564z M120.163,6.701c0,1.319,0,2.585,0,3.872
	c1.322,0,2.612,0.009,3.901-0.005c0.412-0.004,0.735-0.376,0.746-0.851c0.017-0.72,0.017-1.441,0-2.161
	c-0.011-0.475-0.334-0.847-0.746-0.851C122.774,6.693,121.485,6.701,120.163,6.701z"/>
<path fill-rule="evenodd" clip-rule="evenodd" fill="#666666" d="M140.867,12.156c0,1.771,0.033,3.545-0.013,5.315
	c-0.029,1.08-0.396,2.074-1.395,2.634c-0.472,0.264-1.053,0.438-1.591,0.458c-1.574,0.06-3.154,0.046-4.729,0.016
	c-1.686-0.034-2.857-1.247-2.896-2.772c-0.09-3.597-0.105-7.195-0.093-10.793c0.004-1.179,0.38-2.292,1.488-2.911
	c0.491-0.275,1.107-0.426,1.675-0.45c1.454-0.062,2.913-0.05,4.368-0.013c1.988,0.05,3.092,1.189,3.171,3.202
	C140.922,8.61,140.867,10.385,140.867,12.156z M137.888,12.155c0-1.472,0.004-2.943-0.001-4.415
	c-0.003-0.718-0.31-1.037-0.985-1.039c-0.945-0.003-1.893-0.004-2.839,0.001c-0.512,0.003-0.857,0.331-0.857,0.822
	c-0.003,3.062-0.003,6.126,0,9.189c0,0.416,0.27,0.771,0.682,0.794c0.984,0.058,1.973,0.118,2.957,0.08
	c0.776-0.031,1.044-0.41,1.044-1.199C137.888,14.978,137.888,13.566,137.888,12.155z"/>
<path fill-rule="evenodd" clip-rule="evenodd" fill="#666666" d="M99.796,20.585l-3.093-0.005l-0.098-0.38l-0.558-2.41h-1.623
	h-1.593l-0.57,2.471l-0.278,0.309l-2.899,0.015l3.923-16.935h2.845L99.796,20.585L99.796,20.585z M94.488,10.968l-0.094-0.004
	l-0.854,3.726h1.801L94.488,10.968L94.488,10.968z"/>
<polygon fill-rule="evenodd" clip-rule="evenodd" fill="#666666" points="67.287,13.626 67.287,20.562 64.228,20.562 64.228,20.091 
	64.219,4.182 64.219,3.623 74.462,3.632 74.933,3.632 74.933,6.687 67.332,6.687 67.332,10.569 71.963,10.569 71.963,13.626 
	67.287,13.626 "/>
<polyline fill-rule="evenodd" clip-rule="evenodd" fill="#666666" points="76.842,3.631 79.919,3.625 79.919,4.371 79.919,17.604 
	87.546,17.604 87.546,20.552 76.85,20.552 76.852,20.127 76.842,3.631 "/>
<polygon fill-rule="evenodd" clip-rule="evenodd" fill="#666666" points="109.382,3.649 109.382,6.686 105.547,6.686 
	105.547,20.554 102.554,20.554 102.554,6.716 98.794,6.716 98.794,3.649 109.382,3.649 "/>
<polygon fill-rule="evenodd" clip-rule="evenodd" fill="#666666" points="111.742,20.559 111.742,20.102 111.736,3.649 
	111.736,3.625 114.69,3.649 114.69,20.559 111.742,20.559 "/>
<path fill-rule="evenodd" clip-rule="evenodd" fill="#666666" d="M210.737,12.574c0,1.758,0.012,3.515-0.005,5.272
	c-0.011,1.186-0.452,2.178-1.507,2.788c-0.354,0.205-0.804,0.337-1.213,0.346c-1.666,0.039-3.334-0.006-5.001,0.022
	c-1.444,0.024-2.465-0.914-2.809-2.191c-0.134-0.494-0.188-1.023-0.189-1.537c-0.018-3.124-0.032-6.248,0.004-9.372
	c0.012-1.017,0.111-2.042,0.892-2.853c0.533-0.555,1.158-0.897,1.917-0.908c1.711-0.025,3.426-0.054,5.136,0.006
	c1.387,0.049,2.347,0.936,2.672,2.365c0.107,0.472,0.096,0.976,0.099,1.466C210.744,9.511,210.737,11.042,210.737,12.574z
	 M203.074,12.596c0,1.486-0.002,2.972,0,4.458c0,0.628,0.324,0.958,0.957,0.963c0.915,0.006,1.832,0.004,2.747,0.001
	c0.593-0.003,0.979-0.373,0.979-0.954c0.004-2.972,0.004-5.943,0-8.915c0-0.632-0.39-1.027-1.023-1.034
	c-0.885-0.009-1.771-0.027-2.655,0.006c-0.687,0.025-1.021,0.342-1.011,1.018C203.088,9.624,203.074,11.11,203.074,12.596z"/>
<path fill-rule="evenodd" clip-rule="evenodd" fill="#666666" d="M223.811,12.555c0,1.742,0.021,3.483-0.009,5.225
	c-0.018,0.952-0.291,1.827-1.032,2.505c-0.494,0.452-1.062,0.705-1.724,0.709c-1.651,0.011-3.303-0.018-4.954,0.01
	c-1.467,0.024-2.435-0.875-2.812-2.131c-0.135-0.445-0.19-0.93-0.193-1.396c-0.016-3.318-0.016-6.636-0.003-9.954
	c0.003-0.84,0.223-1.628,0.738-2.319c0.515-0.69,1.222-1.043,2.056-1.059c1.711-0.033,3.424-0.051,5.133,0.002
	c1.46,0.046,2.557,1.055,2.685,2.53c0.142,1.621,0.087,3.258,0.115,4.888C223.815,11.895,223.811,12.225,223.811,12.555z
	 M220.831,12.582c0-1.441,0.005-2.883-0.001-4.324c-0.003-0.697-0.369-1.132-0.979-1.142c-0.916-0.015-1.832-0.016-2.748,0.001
	c-0.568,0.01-0.852,0.244-0.953,0.785c-0.065,0.347-0.089,0.706-0.09,1.059c-0.007,2.599-0.016,5.196,0.002,7.794
	c0.006,0.946,0.382,1.312,1.258,1.271c1.124-0.008,1.126,0.009,2.296,0.004c0.814,0.005,1.228-0.435,1.22-1.213
	C220.821,15.406,220.831,13.994,220.831,12.582z"/>
<polygon fill-rule="evenodd" clip-rule="evenodd" fill="#666666" points="187.054,4.155 190,4.155 190,7.588 190,11.043 
	194.686,11.043 194.686,7.632 194.686,4.17 197.632,4.17 197.632,20.969 194.698,20.969 194.698,14.088 190.02,14.088 190.02,20.96 
	187.054,20.96 187.054,4.155 "/>
<path fill-rule="evenodd" clip-rule="evenodd" fill="#666666" d="M172.899,7.596c-1.027,0.261-1.994,0.508-2.962,0.753
	c-0.186-1.041-0.417-1.236-1.464-1.236c-0.735,0-1.472-0.005-2.208,0.001c-0.695,0.005-1.058,0.38-1.059,1.08
	c-0.001,0.556-0.001,1.111,0,1.667c0.001,0.537,0.318,0.926,0.849,1.032c1.369,0.273,2.748,0.51,4.108,0.822
	c1.809,0.416,2.64,1.327,2.701,3.265c0.03,0.96,0.019,1.922,0.002,2.884c-0.029,1.752-1.115,3.154-3.106,3.136
	c-1.562-0.014-3.124,0.003-4.686-0.004c-1.726-0.006-2.728-1.33-2.847-2.812c-0.015-0.189-0.025-0.379-0.038-0.578
	c0.098-0.038,0.203-0.094,0.314-0.121c0.881-0.216,1.763-0.426,2.646-0.639c0.197,1.016,0.395,1.173,1.452,1.173
	c0.736,0,1.473,0.002,2.208-0.001c0.576-0.003,0.983-0.271,1.048-0.827c0.067-0.59,0.062-1.202-0.012-1.792
	c-0.076-0.604-0.534-0.837-1.346-0.993c-1.39-0.266-2.784-0.533-4.146-0.909c-1.173-0.325-2.113-1.437-2.131-2.809
	c-0.013-0.971-0.105-1.943-0.073-2.911c0.034-0.976,0.15-1.943,0.886-2.721c0.555-0.586,1.206-0.908,1.996-0.917
	c1.607-0.017,3.215-0.005,4.821-0.005c1.476,0,2.637,0.951,2.921,2.408C172.843,6.887,172.859,7.243,172.899,7.596z"/>
<path fill-rule="evenodd" clip-rule="evenodd" fill="#666666" d="M182.557,16.85c0.886,0.214,1.745,0.428,2.608,0.625
	c0.244,0.057,0.339,0.165,0.332,0.425c-0.034,1.636-1.195,3.154-3.016,3.106c-2.507,0-3.186-0.009-4.778-0.01
	c-1.734,0-2.807-1.354-2.839-2.811c-0.073-3.405-0.092-6.811-0.092-10.216c0-0.882,0.064-1.776,0.609-2.555
	c0.58-0.831,1.351-1.275,2.362-1.28c1.487-0.006,2.664-0.003,4.463-0.013c2.152,0,3.37,1.585,3.271,3.482
	c-0.965,0.247-1.942,0.496-2.92,0.746c-0.157-0.922-0.532-1.238-1.473-1.238c-0.722,0-1.442-0.003-2.164,0
	c-0.728,0.004-1.093,0.371-1.093,1.092c0,2.945,0,5.891,0,8.836c0,0.651,0.323,0.973,0.991,0.977
	c1.292,0.014,1.292,0.014,2.344,0.006C182.212,18.058,182.388,17.655,182.557,16.85z"/>
<polygon fill-rule="evenodd" clip-rule="evenodd" fill="#666666" points="226.167,20.967 226.167,4.162 229.128,4.162 
	229.128,18.007 236.85,18.007 236.85,20.967 226.167,20.967 "/>
</svg>
